<?xml version="1.0" encoding="UTF-8"?>
<svg version="1.1" xmlns="http://www.w3.org/2000/svg" width="313" height="313">
<path d="M0 0 C0.67772461 0.16097168 1.35544922 0.32194336 2.05371094 0.48779297 C19.62112571 4.75065516 36.36469718 12.39740171 51 23 C51.56879883 23.40943848 52.13759766 23.81887695 52.72363281 24.24072266 C80.60690857 44.58231018 100.8147452 73.30579599 109.8125 106.6875 C110.00755127 107.41050293 110.20260254 108.13350586 110.40356445 108.87841797 C113.38759968 120.71715321 114.36775673 132.5698388 114.3125 144.75 C114.30686035 146.06403809 114.3012207 147.37807617 114.29541016 148.73193359 C114.17037013 158.78094251 113.42800842 168.24995881 111 178 C110.81727539 178.76328613 110.63455078 179.52657227 110.44628906 180.31298828 C103.6923422 207.6781178 89.68202544 231.0648504 70 251 C69.45400146 251.5664624 68.90800293 252.1329248 68.34545898 252.71655273 C44.35770426 277.30207035 8.63137945 292.47148853 -25.63671875 293.30078125 C-28.32159591 293.32009691 -31.00294715 293.32702228 -33.6875 293.3125 C-34.38932404 293.31067719 -35.09114807 293.30885437 -35.8142395 293.30697632 C-46.78145568 293.25911722 -57.32741492 292.66616055 -68 290 C-68.6791748 289.83902832 -69.35834961 289.67805664 -70.05810547 289.51220703 C-96.35719692 283.12905147 -118.36958688 269.29055953 -138 251 C-138.72960937 250.33613281 -139.45921875 249.67226563 -140.2109375 248.98828125 C-164.1721587 226.2813478 -180.38423873 191.48048479 -182.19287109 158.48095703 C-183.19403627 112.2149907 -171.30563588 73.91147158 -139 40 C-138.28328125 39.21882813 -137.5665625 38.43765625 -136.828125 37.6328125 C-103.32492362 2.24033284 -46.78368541 -11.78368464 0 0 Z " fill="#1d2021" transform="translate(191,11)"/>
<path d="M0 0 C2.40717262 1.24270862 4.54970428 2.61646952 6.8125 4.125 C8.99454698 4.32362586 11.18482329 4.43749221 13.375 4.5 C23.23963458 5.09939592 31.6796409 8.08398029 38.8125 15.125 C44.65736265 21.93101784 45.65765446 28.66116528 46.29296875 37.29296875 C46.84882892 41.39295992 48.13327155 44.36021127 49.8125 48.125 C50.64683438 50.95214763 51.29822074 53.81074334 51.9375 56.6875 C52.19080078 57.78094727 52.19080078 57.78094727 52.44921875 58.89648438 C58.17820236 83.9551489 52.23263378 104.14375611 42.89013672 127.42333984 C37.47273322 140.92852513 35.66626814 152.73263413 35.5625 167.25 C35.54823975 168.89524658 35.54823975 168.89524658 35.53369141 170.57373047 C35.56534488 178.36869043 36.4296447 185.71487111 38.36083984 193.27026367 C39.38970634 197.49529002 39.36838275 201.831285 38.8125 206.125 C35.76802264 210.46107381 31.48599187 212.77304747 26.8125 215.125 C25.2346875 215.929375 25.2346875 215.929375 23.625 216.75 C7.59994729 223.12518401 -15.19282081 222.42115076 -30.9765625 215.98828125 C-36.63271623 213.40470671 -40.34187968 210.81624063 -43.1875 205.125 C-43.54619207 200.8206952 -43.15262528 197.79472887 -41.69140625 193.73828125 C-39.69646601 187.27514845 -39.78431775 181.02661364 -39.875 174.3125 C-39.87177734 173.13107422 -39.86855469 171.94964844 -39.86523438 170.73242188 C-39.97723764 152.15006272 -45.21874364 137.04495618 -52.88891602 120.40405273 C-63.30058597 97.80933828 -64.64087512 76.22779898 -59 51.9375 C-57.81927278 48.34160424 -57.81927278 48.34160424 -59.1875 46.125 C-60.07787336 37.37390179 -59.38366919 30.37332715 -54.1875 23.125 C-50.81395499 19.24919023 -47.31087059 17.07265045 -42.5625 15.1875 C-39.27650569 13.85325399 -37.66828606 12.83823813 -35.8125 9.8125 C-28.70310462 -1.77781712 -11.98118018 -5.30961692 0 0 Z " fill="#E79C03" transform="translate(160.1875,46.875)"/>
<path d="M0 0 C2.40717262 1.24270862 4.54970428 2.61646952 6.8125 4.125 C8.99454698 4.32362586 11.18482329 4.43749221 13.375 4.5 C23.23963458 5.09939592 31.6796409 8.08398029 38.8125 15.125 C44.65736265 21.93101784 45.65765446 28.66116528 46.29296875 37.29296875 C46.84882892 41.39295992 48.13327155 44.36021127 49.8125 48.125 C50.64683438 50.95214763 51.29822074 53.81074334 51.9375 56.6875 C52.19080078 57.78094727 52.19080078 57.78094727 52.44921875 58.89648438 C58.17820236 83.9551489 52.23263378 104.14375611 42.89013672 127.42333984 C37.47273322 140.92852513 35.66626814 152.73263413 35.5625 167.25 C35.54823975 168.89524658 35.54823975 168.89524658 35.53369141 170.57373047 C35.56534488 178.36869043 36.4296447 185.71487111 38.36083984 193.27026367 C39.38970634 197.49529002 39.36838275 201.831285 38.8125 206.125 C35.76802264 210.46107381 31.48599187 212.77304747 26.8125 215.125 C25.2346875 215.929375 25.2346875 215.929375 23.625 216.75 C7.59994729 223.12518401 -15.19282081 222.42115076 -30.9765625 215.98828125 C-36.63271623 213.40470671 -40.34187968 210.81624063 -43.1875 205.125 C-43.54619207 200.8206952 -43.15262528 197.79472887 -41.69140625 193.73828125 C-39.69646601 187.27514845 -39.78431775 181.02661364 -39.875 174.3125 C-39.87177734 173.13107422 -39.86855469 171.94964844 -39.86523438 170.73242188 C-39.97723764 152.15006272 -45.21874364 137.04495618 -52.88891602 120.40405273 C-63.30058597 97.80933828 -64.64087512 76.22779898 -59 51.9375 C-57.81927278 48.34160424 -57.81927278 48.34160424 -59.1875 46.125 C-60.07787336 37.37390179 -59.38366919 30.37332715 -54.1875 23.125 C-50.81395499 19.24919023 -47.31087059 17.07265045 -42.5625 15.1875 C-39.27650569 13.85325399 -37.66828606 12.83823813 -35.8125 9.8125 C-28.70310462 -1.77781712 -11.98118018 -5.30961692 0 0 Z M-27.1875 67.125 C-27.24103638 68.19983643 -27.24103638 68.19983643 -27.2956543 69.29638672 C-27.60287261 74.74594258 -28.02789051 78.21748806 -32.1875 82.125 C-35.38709413 83.72479706 -38.7149831 83.62107384 -42.1875 83.125 C-45.59861001 80.70131657 -46.88044241 78.04617276 -48.1875 74.125 C-50.1675 74.785 -52.1475 75.445 -54.1875 76.125 C-55.47343928 96.96197905 -49.70116899 113.34555141 -41.09887695 132.13427734 C-37.3800041 140.3542665 -34.85787034 148.26090142 -33.1875 157.125 C-32.99800781 157.89972656 -32.80851562 158.67445313 -32.61328125 159.47265625 C-31.98007997 163.41709361 -31.99688212 167.3235657 -32 171.3125 C-31.99935547 172.16094482 -31.99871094 173.00938965 -31.99804688 173.88354492 C-32.04846246 179.85836416 -32.79138654 185.31763727 -34.1875 191.125 C-34.75851264 195.3668082 -34.52082106 196.60418585 -32.1875 200.25 C-26.29926465 206.58607296 -17.35727038 209.05446867 -8.92578125 209.42578125 C-7.45063989 209.44492607 -5.9752252 209.4484157 -4.5 209.4375 C-3.71834473 209.43331055 -2.93668945 209.42912109 -2.13134766 209.42480469 C8.70782058 209.21623113 20.84004213 207.36298977 28.875 199.4375 C31.90968681 194.24916449 30.51787753 190.34587828 29.28125 184.69921875 C24.68439236 162.42473945 30.08259191 142.78857794 38.43261719 122.25146484 C43.63586006 109.43430235 47.02083797 97.60941676 46.875 83.6875 C46.87048828 82.86056641 46.86597656 82.03363281 46.86132812 81.18164062 C46.84965811 79.16272854 46.83172718 77.14385426 46.8125 75.125 C40.56514618 71.66163246 34.65696286 69.9000526 27.6875 68.4375 C26.72457031 68.22544922 25.76164062 68.01339844 24.76953125 67.79492188 C15.57121367 65.78951151 7.04556019 64.94261154 -2.375 64.9375 C-3.54353516 64.92525391 -4.71207031 64.91300781 -5.91601562 64.90039062 C-13.22889957 64.8881549 -20.04918983 65.52348513 -27.1875 67.125 Z " fill="#FCFBFA" transform="translate(160.1875,46.875)"/>
<path d="M0 0 C1.22976562 0.00064453 2.45953125 0.00128906 3.7265625 0.00195312 C12.73429249 0.04679249 12.73429249 0.04679249 13.875 1.1875 C15.59154925 28.18413828 14.53290389 60.55234824 -2.125 83.1875 C-2.764375 84.13625 -3.40375 85.085 -4.0625 86.0625 C-8.04784008 90.16860796 -11.87451591 92.39695271 -17.5625 92.75 C-22.61388877 92.50781013 -26.3942306 90.55160902 -30.125 87.1875 C-31.5 84.5625 -31.5 84.5625 -32.125 82.1875 C-32.785 81.1975 -33.445 80.2075 -34.125 79.1875 C-35.2424011 76.59271033 -36.32270822 73.99591652 -37.375 71.375 C-39.56791114 65.94895063 -41.83907519 60.584015 -44.25 55.25 C-50.54260336 40.43193402 -52.92679734 27.2590822 -52.125 11.1875 C-50.145 10.5275 -48.165 9.8675 -46.125 9.1875 C-45.691875 10.30125 -45.25875 11.415 -44.8125 12.5625 C-43.42588881 16.36262334 -43.42588881 16.36262334 -40.125 18.1875 C-34.30551663 18.76820527 -34.30551663 18.76820527 -29.1875 16.3125 C-26.1987612 13.23319336 -25.9379118 11.24566006 -25.5625 7.0625 C-25.41666667 5.4375 -25.27083333 3.8125 -25.125 2.1875 C-16.69258655 0.28476288 -8.62430235 -0.08866978 0 0 Z " fill="#FEAC02" transform="translate(158.125,111.8125)"/>
<path d="M0 0 C3.77164313 1.51086289 5.90064095 4.1372119 8.421875 7.1953125 C8.91558594 7.7521875 9.40929687 8.3090625 9.91796875 8.8828125 C13.19716649 12.78191337 14.70241225 15.79958373 14.671875 21.0703125 C13.51171875 23.52734375 13.51171875 23.52734375 11.609375 25.8828125 C10.8771875 26.81480469 10.145 27.74679688 9.390625 28.70703125 C8.96652344 29.22958496 8.54242188 29.75213867 8.10546875 30.29052734 C6.46441116 32.32787575 4.86396713 34.39382118 3.265625 36.46484375 C0.8982899 39.53056013 -1.47643561 42.59007203 -3.86328125 45.640625 C-4.42418457 46.36411133 -4.98508789 47.08759766 -5.56298828 47.83300781 C-6.80249379 49.40407677 -8.06912354 50.95394121 -9.35498047 52.48730469 C-10.32975342 53.66921387 -10.32975342 53.66921387 -11.32421875 54.875 C-11.92290771 55.58382324 -12.52159668 56.29264648 -13.13842773 57.02294922 C-14.5358148 58.9780854 -14.5358148 58.9780854 -14.15478516 61.15234375 C-12.80347217 64.28758143 -10.50592966 66.66627235 -8.265625 69.1953125 C-7.25675931 70.35976545 -6.24895462 71.52513843 -5.2421875 72.69140625 C-4.74493164 73.26487793 -4.24767578 73.83834961 -3.73535156 74.42919922 C-1.1540343 77.43954179 1.30208974 80.54591808 3.74609375 83.66796875 C5.10065833 85.35773998 6.50429604 87.00875619 7.94140625 88.62890625 C8.67746094 89.47582031 9.41351563 90.32273437 10.171875 91.1953125 C10.8421875 91.94039063 11.5125 92.68546875 12.203125 93.453125 C14.211895 97.03258218 14.507314 100.12003829 13.671875 104.0703125 C12.30728708 106.8817009 10.534392 109.17087488 8.546875 111.5703125 C7.8353125 112.51777344 7.8353125 112.51777344 7.109375 113.484375 C4.759913 116.41802755 3.37999777 117.87211257 -0.30078125 118.90234375 C-4.83017329 117.65749149 -6.78332688 114.85181158 -9.640625 111.2578125 C-10.21039063 110.57074219 -10.78015625 109.88367188 -11.3671875 109.17578125 C-13.03814202 107.15403943 -14.68541326 105.11502496 -16.328125 103.0703125 C-17.82785766 101.23676046 -19.32782299 99.40339869 -20.828125 97.5703125 C-21.529375 96.70277344 -22.230625 95.83523437 -22.953125 94.94140625 C-25.29777021 92.10700785 -27.70157336 89.33652123 -30.12817383 86.57250977 C-32.8858956 83.42586328 -35.61507724 80.25552756 -38.328125 77.0703125 C-38.80975098 76.50570312 -39.29137695 75.94109375 -39.78759766 75.359375 C-41.09555992 73.80340709 -42.36910919 72.21870309 -43.640625 70.6328125 C-44.35863281 69.74722656 -45.07664062 68.86164063 -45.81640625 67.94921875 C-47.75348581 64.26025846 -48.14417218 61.10751955 -47.328125 57.0703125 C-45.4921875 53.90234375 -45.4921875 53.90234375 -42.953125 50.8828125 C-42.02293746 49.74780545 -41.09326344 48.6123774 -40.1640625 47.4765625 C-39.68807617 46.90808594 -39.21208984 46.33960938 -38.72167969 45.75390625 C-36.59779029 43.187974 -34.59355484 40.53434146 -32.578125 37.8828125 C-11.39447404 10.29797773 -11.39447404 10.29797773 -5.328125 3.0703125 C-4.86792969 2.47089844 -4.40773437 1.87148437 -3.93359375 1.25390625 C-2.328125 0.0703125 -2.328125 0.0703125 0 0 Z " fill="#FCEECE" transform="translate(74.328125,97.9296875)"/>
<path d="M0 0 C4.20821276 1.19204973 6.18620266 3.82761022 8.77734375 7.15234375 C9.29868896 7.79099365 9.82003418 8.42964355 10.35717773 9.08764648 C11.90861462 10.99309933 13.43712202 12.9153643 14.96484375 14.83984375 C16.48340924 16.69586824 18.00400896 18.55023167 19.52734375 20.40234375 C20.24277344 21.2840625 20.95820313 22.16578125 21.6953125 23.07421875 C24.20584548 26.13352572 26.77012403 29.14283524 29.33984375 32.15234375 C35.08181997 38.89208603 40.55551999 45.83148002 45.96484375 52.83984375 C46.56296875 53.50886719 47.16109375 54.17789063 47.77734375 54.8671875 C49.5103704 57.746064 49.43377287 59.52854601 48.96484375 62.83984375 C47.67489455 65.16115786 46.43766043 67.06766615 44.83984375 69.15234375 C44.39680908 69.75135498 43.95377441 70.35036621 43.49731445 70.9675293 C39.30734099 76.55678902 34.84566278 81.92780754 30.36865234 87.2878418 C25.54068386 93.07996202 20.93120533 99.01541408 16.40307617 105.04418945 C14.93813429 106.98767425 13.45455456 108.91530378 11.96484375 110.83984375 C11.45953125 111.51499023 10.95421875 112.19013672 10.43359375 112.88574219 C6.72799311 117.59573076 6.72799311 117.59573076 3.44921875 118.64453125 C-0.27095507 117.43956929 -2.32876289 114.85822353 -4.78515625 111.96484375 C-5.52572266 111.13146484 -5.52572266 111.13146484 -6.28125 110.28125 C-9.92535365 106.13795407 -11.53858146 103.73104071 -11.45068359 98.07373047 C-10.63799696 93.70470422 -7.66032303 90.70768681 -4.84765625 87.40234375 C-3.56928581 85.83416973 -2.29196946 84.26513592 -1.015625 82.6953125 C-0.03021729 81.50107666 -0.03021729 81.50107666 0.97509766 80.28271484 C4.19221717 76.33296051 7.26278588 72.27400564 10.33984375 68.21484375 C11.43063318 66.78488431 12.52174461 65.3551704 13.61328125 63.92578125 C14.38929688 62.90742188 15.1653125 61.8890625 15.96484375 60.83984375 C14.06168263 56.75975274 11.35642008 53.63383295 8.40234375 50.27734375 C7.31155148 49.02165667 6.22171665 47.76513727 5.1328125 46.5078125 C4.59446777 45.88696777 4.05612305 45.26612305 3.50146484 44.62646484 C0.62692999 41.28425861 -2.15652199 37.87017769 -4.921875 34.4375 C-6.37525276 32.65100053 -7.8590637 30.88896899 -9.3671875 29.1484375 C-10.10324219 28.28347656 -10.83929688 27.41851562 -11.59765625 26.52734375 C-12.25894531 25.76808594 -12.92023438 25.00882813 -13.6015625 24.2265625 C-15.52286134 21.02788787 -15.68840654 19.52958157 -15.03515625 15.83984375 C-13.44655845 12.96830524 -11.4866924 10.49792331 -9.41015625 7.96484375 C-8.88808594 7.27648437 -8.36601562 6.588125 -7.828125 5.87890625 C-5.34366149 2.78712943 -3.88700015 1.07555345 0 0 Z " fill="#FCEECF" transform="translate(237.03515625,95.16015625)"/>
<path d="M0 0 C8.60409357 1.0221175 19.1504063 2.40623349 25.703125 8.61328125 C27.63933507 12.17660762 28.36304011 15.86343336 29.1875 19.8125 C29.45336914 20.98522461 29.45336914 20.98522461 29.72460938 22.18164062 C30.74360227 26.89104023 31.18645091 31.18442317 31 36 C30.43039551 35.8146167 29.86079102 35.6292334 29.27392578 35.43823242 C22.22448705 33.22519967 15.12548777 31.70779735 7.875 30.3125 C6.15410156 29.97508789 6.15410156 29.97508789 4.3984375 29.63085938 C1.59979348 29.08279159 -1.19964941 28.53926751 -4 28 C-4.28924411 22.31153259 -4.01828444 19.86746124 -1 15 C-0.63774319 12.33146704 -0.40199569 9.85958571 -0.3125 7.1875 C-0.27833984 6.49462891 -0.24417969 5.80175781 -0.20898438 5.08789062 C-0.12713656 3.39247151 -0.06187635 1.69626542 0 0 Z " fill="#E7D5B0" transform="translate(175,85)"/>
<path d="M0 0 C0.33 0 0.66 0 1 0 C1.02578125 0.79664062 1.0515625 1.59328125 1.078125 2.4140625 C1.51152995 11.00128771 1.51152995 11.00128771 6 18 C9.06117021 19.93099133 11.00372775 20.18729373 14.5625 19.6875 C15.32691406 19.58824219 16.09132812 19.48898438 16.87890625 19.38671875 C19.17759623 19.0191013 19.17759623 19.0191013 22 18 C22.495 20.97 22.495 20.97 23 24 C22.19892822 24.02505615 21.39785645 24.0501123 20.57250977 24.07592773 C16.90237974 24.19279735 13.23244983 24.31510745 9.5625 24.4375 C7.67241211 24.49647461 7.67241211 24.49647461 5.74414062 24.55664062 C0.39186052 24.73831071 -4.90678753 24.92657495 -10.22265625 25.59765625 C-14 26 -14 26 -17 25 C-17 17.41 -17 9.82 -17 2 C-14.525 2.99 -14.525 2.99 -12 4 C-9.6565477 4.14150388 -9.6565477 4.14150388 -7.375 3.8125 C-6.24191406 3.69841797 -6.24191406 3.69841797 -5.0859375 3.58203125 C-2.63009945 2.89678805 -1.67002636 1.87751448 0 0 Z " fill="#FEEFCE" transform="translate(149,88)"/>
<path d="M0 0 C2 3 2 3 1.75 5.5625 C1 8 1 8 -1 10 C-4.13704316 10.333728 -6.16554166 10.52849028 -8.875 8.8125 C-10.40659584 6.34492892 -10.42822025 4.85480169 -10 2 C-7.59684073 -2.24086929 -4.21511384 -1.07293807 0 0 Z " fill="#FFFBF3" transform="translate(127,142)"/>
<path d="M0 0 C0.33 0 0.66 0 1 0 C1 8.58 1 17.16 1 26 C-0.98 26.66 -2.96 27.32 -5 28 C-4.46633574 22.75230141 -3.82275132 17.53249331 -3.0625 12.3125 C-2.90910156 11.25675781 -2.75570312 10.20101562 -2.59765625 9.11328125 C-1.99014921 5.94868577 -1.08588237 3.03047507 0 0 Z " fill="#FFEFD0" transform="translate(111,95)"/>
<path d="" fill="#FFFFD5" transform="translate(0,0)"/>
<path d="" fill="#FFFFFF" transform="translate(0,0)"/>
<path d="" fill="#FFFFFF" transform="translate(0,0)"/>
<path d="" fill="#FFFFD5" transform="translate(0,0)"/>
<path d="" fill="#FFFFFF" transform="translate(0,0)"/>
</svg>
